<?xml version="1.0" ?>

<!-- Uploaded to: SVG Repo, www.svgrepo.com, Generator: SVG Repo Mixer Tools -->
<svg width="800px" height="800px" viewBox="0 0 20 20" version="1.1" xmlns="http://www.w3.org/2000/svg">

<g id="layer1">

<path d="M 9.8222656 3 L 9.3378906 3.0292969 L 8.8574219 3.0917969 L 8.3808594 3.1894531 L 7.9140625 3.3183594 L 7.4550781 3.4785156 L 7.0097656 3.6699219 L 6.578125 3.8925781 L 6.1640625 4.1445312 L 5.7675781 4.4238281 L 5.390625 4.7304688 L 5.0371094 5.0605469 L 4.7070312 5.4179688 L 4 6.234375 L 4 3.5 L 3 4.5 L 3 8 L 6.5 8 L 7.5 7 L 4.6601562 7 L 5.4628906 6.0722656 L 5.7695312 5.7441406 L 6.0996094 5.4414062 L 6.4492188 5.1621094 L 6.8203125 4.9101562 L 7.2089844 4.6875 L 7.6152344 4.4941406 L 8.0332031 4.3300781 L 8.4609375 4.2011719 L 8.8984375 4.1015625 L 9.3417969 4.0351562 L 9.7890625 4.0039062 L 10.238281 4.0058594 L 10.685547 4.0390625 L 11.128906 4.1054688 L 11.564453 4.2070312 L 11.994141 4.3398438 L 12.410156 4.5058594 L 12.814453 4.7011719 L 13.201172 4.9257812 L 13.572266 5.1777344 L 13.921875 5.4589844 L 14.25 5.7636719 L 14.554688 6.09375 L 14.833984 6.4453125 L 15.083984 6.8164062 L 15.310547 7.2050781 L 15.501953 7.609375 L 15.666016 8.0273438 L 15.796875 8.4550781 L 15.896484 8.8925781 L 15.962891 9.3359375 L 15.994141 9.7851562 L 15.994141 10.232422 L 15.960938 10.679688 L 15.894531 11.123047 L 15.792969 11.558594 L 15.660156 11.988281 L 15.496094 12.404297 L 15.300781 12.808594 L 15.078125 13.197266 L 14.824219 13.566406 L 14.542969 13.917969 L 14.238281 14.246094 L 13.910156 14.550781 L 13.558594 14.830078 L 13.1875 15.082031 L 12.798828 15.306641 L 12.396484 15.5 L 11.978516 15.664062 L 11.548828 15.796875 L 11.111328 15.896484 L 10.667969 15.960938 L 10.222656 15.994141 L 9.7714844 15.994141 L 9.3261719 15.960938 L 8.8808594 15.894531 L 8.4433594 15.794922 L 8.015625 15.662109 L 7.5996094 15.498047 L 7.1953125 15.302734 L 6.8066406 15.078125 L 6.4355469 14.826172 L 6.0859375 14.546875 L 5.7558594 14.242188 L 5.0488281 14.949219 L 5.4042969 15.28125 L 5.78125 15.585938 L 6.1777344 15.865234 L 6.5957031 16.115234 L 7.0253906 16.335938 L 7.4726562 16.527344 L 7.9296875 16.6875 L 8.4003906 16.814453 L 8.875 16.908203 L 9.3554688 16.970703 L 9.8417969 16.998047 L 10.326172 16.992188 L 10.808594 16.953125 L 11.289062 16.878906 L 11.763672 16.773438 L 12.228516 16.634766 L 12.683594 16.464844 L 13.123047 16.261719 L 13.550781 16.03125 L 13.960938 15.771484 L 14.351562 15.482422 L 14.71875 15.167969 L 15.066406 14.830078 L 15.388672 14.466797 L 15.685547 14.082031 L 15.955078 13.679688 L 16.195312 13.255859 L 16.40625 12.818359 L 16.585938 12.369141 L 16.734375 11.908203 L 16.849609 11.435547 L 16.933594 10.957031 L 16.982422 10.476562 L 17 9.9902344 L 16.982422 9.5058594 L 16.931641 9.0214844 L 16.847656 8.5449219 L 16.728516 8.0742188 L 16.580078 7.6113281 L 16.398438 7.1621094 L 16.185547 6.7265625 L 15.945312 6.3046875 L 15.675781 5.9023438 L 15.376953 5.5175781 L 15.054688 5.15625 L 14.707031 4.8183594 L 14.335938 4.5058594 L 13.945312 4.2167969 L 13.535156 3.9570312 L 13.109375 3.7285156 L 12.666016 3.5273438 L 12.210938 3.3574219 L 11.746094 3.2207031 L 11.271484 3.1152344 L 10.792969 3.0449219 L 10.306641 3.0058594 L 9.8222656 3 z " style="fill:white; fill-opacity:1; stroke:none; stroke-width:0px;"/>

</g>

</svg>